<svg xmlns="http://www.w3.org/2000/svg" viewBox="0 0 1440 320"><path fill="#7AC74F" fill-opacity="1" d="M0,32L24,53.3C48,75,96,117,144,117.3C192,117,240,75,288,69.3C336,64,384,96,432,96C480,96,528,64,576,96C624,128,672,224,720,261.3C768,299,816,277,864,250.7C912,224,960,192,1008,160C1056,128,1104,96,1152,80C1200,64,1248,64,1296,69.3C1344,75,1392,85,1416,90.7L1440,96L1440,320L1416,320C1392,320,1344,320,1296,320C1248,320,1200,320,1152,320C1104,320,1056,320,1008,320C960,320,912,320,864,320C816,320,768,320,720,320C672,320,624,320,576,320C528,320,480,320,432,320C384,320,336,320,288,320C240,320,192,320,144,320C96,320,48,320,24,320L0,320Z"></path></svg>