<!-- Guarda esto como fruver-waves-background.svg -->
<svg width="100%" height="100%" viewBox="0 0 1440 320" xmlns="http://www.w3.org/2000/svg">
    <path fill="#E0F7DF" fill-opacity="1" d="M0,128L48,144C96,160,192,192,288,197.3C384,203,480,181,576,176C672,171,768,181,864,197.3C960,213,1056,235,1152,229.3C1248,224,1344,192,1392,176L1440,160L1440,320L1392,320C1248,320,1152,320,1056,320C960,320,864,320,768,320C672,320,576,320,480,320C384,320,288,320,192,320C96,320,48,320,0,320Z"></path>
    <path fill="#66BB6A" fill-opacity="1" d="M0,288L48,272C96,256,192,224,288,208C384,192,480,192,576,181.3C672,171,768,149,864,154.7C960,160,1056,192,1152,186.7C1248,181,1344,139,1392,117.3L1440,96L1440,320L1392,320C1248,320,1152,320,1056,320C960,320,864,320,768,320C672,320,576,320,480,320C384,320,288,320,192,320C96,320,48,320,0,320Z"></path>
    <path fill="#388E3C" fill-opacity="1" d="M0,192L48,186.7C96,181,192,171,288,170.7C384,171,480,181,576,186.7C672,192,768,192,864,170.7C960,149,1056,107,1152,101.3C1248,96,1344,128,1392,144L1440,160L1440,320L1392,320C1248,320,1152,320,1056,320C960,320,864,320,768,320C672,320,576,320,480,320C384,320,288,320,192,320C96,320,48,320,0,320Z"></path>
</svg>
